<svg xmlns="http://www.w3.org/2000/svg" width="19.184" height="19.184" viewBox="0 0 19.184 19.184">
    <path d="M8.119 2.57a7 7 0 0 0-2.327.45 4.906 4.906 0 0 0-2.8 2.809 7.048 7.048 0 0 0-.442 2.33c-.045 1.022-.05 1.35-.05 3.955s.016 2.931.066 3.955a7.012 7.012 0 0 0 .45 2.327 4.9 4.9 0 0 0 2.811 2.8 7.042 7.042 0 0 0 2.329.441c1.021.045 1.35.055 3.954.05s2.932-.016 3.955-.065a7.018 7.018 0 0 0 2.326-.45 4.9 4.9 0 0 0 2.8-2.811 7.016 7.016 0 0 0 .441-2.328c.045-1.024.055-1.351.05-3.955s-.017-2.931-.065-3.954a7.006 7.006 0 0 0-.45-2.327 4.709 4.709 0 0 0-1.109-1.7 4.681 4.681 0 0 0-1.7-1.1 7.019 7.019 0 0 0-2.329-.441c-1.021-.044-1.35-.055-3.955-.05s-2.931.016-3.954.066m.112 17.341a5.323 5.323 0 0 1-1.781-.326 2.987 2.987 0 0 1-1.1-.715 2.954 2.954 0 0 1-.719-1.1 5.312 5.312 0 0 1-.333-1.781c-.048-1.011-.058-1.314-.063-3.875s0-2.864.049-3.875A5.309 5.309 0 0 1 4.6 6.455a3.175 3.175 0 0 1 1.821-1.824A5.312 5.312 0 0 1 8.2 4.3c1.012-.048 1.315-.058 3.875-.063s2.864 0 3.876.049a5.3 5.3 0 0 1 1.781.326 3.176 3.176 0 0 1 1.824 1.818 5.285 5.285 0 0 1 .333 1.78c.048 1.012.059 1.315.064 3.875s0 2.864-.049 3.875a5.33 5.33 0 0 1-.326 1.782 3.177 3.177 0 0 1-1.818 1.824 5.313 5.313 0 0 1-1.78.334c-1.012.048-1.315.058-3.876.063s-2.864 0-3.875-.049m7.82-12.942A1.151 1.151 0 1 0 17.2 5.816a1.151 1.151 0 0 0-1.149 1.153M7.166 12.1a4.925 4.925 0 1 0 4.916-4.93 4.925 4.925 0 0 0-4.916 4.93m1.728 0a3.2 3.2 0 1 1 3.2 3.191 3.2 3.2 0 0 1-3.2-3.191" transform="translate(-2.499 -2.503)" style="fill:#fff"/>
</svg>
