<svg xmlns="http://www.w3.org/2000/svg" width="15.077" height="17.735" viewBox="0 0 15.077 17.735">
    <path data-name="Union 3" d="M2.427 16.786A5.643 5.643 0 0 1 0 12.124a5.544 5.544 0 0 1 5.475-5.61 5.384 5.384 0 0 1 .751.052V9.669a2.457 2.457 0 0 0-.759-.12 2.536 2.536 0 0 0-2.5 2.567 2.574 2.574 0 0 0 1.378 2.293 2.5 2.5 0 0 0 1.638.987 2.493 2.493 0 0 1-1.638-.987 2.44 2.44 0 0 0 1.127.274 2.536 2.536 0 0 0 2.5-2.558V0h2.979v.39q.016.175.045.348a4.254 4.254 0 0 0 1.89 2.868 4.057 4.057 0 0 0 2.192.641v3.036a6.957 6.957 0 0 1-4.127-1.354v6.2a5.544 5.544 0 0 1-5.475 5.61 5.357 5.357 0 0 1-3.049-.953zm-1.56-3.923a5.779 5.779 0 0 0 .056.808 5.779 5.779 0 0 1-.056-.808zm14.21-7.969a4.081 4.081 0 0 1-1.157-.447 4.064 4.064 0 0 0 1.157.447zm-1.16-.449-.026-.015zm-.038-.022-.017-.01zm-.038-.023h-.007z" style="fill:#fff"/>
</svg>
