<svg xmlns="http://www.w3.org/2000/svg" width="23.928" height="16.75" viewBox="0 0 23.928 16.75">
    <path data-name="Path 3258" d="M107.978 6.6a3 3 0 0 0-2.115-2.115c-1.866-.5-9.349-.5-9.349-.5s-7.483 0-9.349.5A3 3 0 0 0 85.05 6.6a31.132 31.132 0 0 0-.5 5.759 31.132 31.132 0 0 0 .5 5.759 3 3 0 0 0 2.115 2.115c1.866.5 9.349.5 9.349.5s7.483 0 9.349-.5a3 3 0 0 0 2.115-2.115 31.132 31.132 0 0 0 .5-5.759 31.132 31.132 0 0 0-.5-5.759zm-13.857 9.344V8.766l6.217 3.589z" transform="translate(-84.55 -3.98)" style="fill:#fff"/>
</svg>
